#N canvas 39 266 1117 393 10;
#N canvas 704 217 507 482 column 0;
#X obj 59 19 receive fromGUI;
#X obj 58 53 route list;
#X obj 57 81 route /greenpush1 /graypush1 /redpush1;
#X obj 76 143 tgl 15 0 empty empty empty 17 7 0 10 -262144 -1 -1 0
1;
#X obj 122 143 tgl 15 0 empty empty empty 17 7 0 10 -262144 -1 -1 0
1;
#X obj 172 142 tgl 15 0 empty empty empty 17 7 0 10 -262144 -1 -1 0
1;
#X obj 59 181 sel 1;
#X obj 169 183 sel 1;
#X obj 115 186 sel 1;
#X obj 257 295 vsl 15 128 0 127 0 0 empty empty empty 0 -9 0 10 -262144
-1 -1 0 1;
#X obj 297 296 vsl 15 128 0 127 0 0 empty empty empty 0 -9 0 10 -262144
-1 -1 0 1;
#X obj 340 294 vsl 15 128 0 127 0 0 empty empty empty 0 -9 0 10 -262144
-1 -1 0 1;
#X msg 157 259 0;
#X msg 189 237 0;
#X msg 117 241 0;
#X obj 131 331 osc~ 440;
#X obj 144 375 *~ 0.1;
#X msg 300 217 0.1;
#X msg 272 192 0.02;
#X msg 312 242 0.3;
#X obj 97 446 outlet~;
#X connect 0 0 1 0;
#X connect 1 0 2 0;
#X connect 2 0 3 0;
#X connect 2 1 4 0;
#X connect 2 2 5 0;
#X connect 3 0 6 0;
#X connect 4 0 8 0;
#X connect 5 0 7 0;
#X connect 6 0 18 0;
#X connect 6 1 14 0;
#X connect 7 0 19 0;
#X connect 7 1 13 0;
#X connect 8 0 17 0;
#X connect 8 1 12 0;
#X connect 9 0 16 1;
#X connect 10 0 16 1;
#X connect 11 0 16 1;
#X connect 12 0 10 0;
#X connect 13 0 11 0;
#X connect 14 0 9 0;
#X connect 15 0 16 0;
#X connect 16 0 20 0;
#X connect 17 0 10 0;
#X connect 18 0 9 0;
#X connect 19 0 11 0;
#X restore 27 49 pd column 1 sin440;
#N canvas 704 217 507 482 column 0;
#X obj 59 19 receive fromGUI;
#X obj 58 53 route list;
#X obj 76 143 tgl 15 0 empty empty empty 17 7 0 10 -262144 -1 -1 0
1;
#X obj 122 143 tgl 15 0 empty empty empty 17 7 0 10 -262144 -1 -1 0
1;
#X obj 172 142 tgl 15 0 empty empty empty 17 7 0 10 -262144 -1 -1 0
1;
#X obj 59 181 sel 1;
#X obj 169 183 sel 1;
#X obj 115 186 sel 1;
#X obj 257 295 vsl 15 128 0 127 0 0 empty empty empty 0 -9 0 10 -262144
-1 -1 0 1;
#X obj 297 296 vsl 15 128 0 127 0 0 empty empty empty 0 -9 0 10 -262144
-1 -1 0 1;
#X obj 340 294 vsl 15 128 0 127 0 0 empty empty empty 0 -9 0 10 -262144
-1 -1 0 1;
#X msg 157 259 0;
#X msg 189 237 0;
#X msg 117 241 0;
#X obj 144 375 *~ 0.1;
#X msg 300 217 0.1;
#X msg 272 192 0.02;
#X msg 312 242 0.3;
#X obj 97 434 outlet~;
#X obj 131 331 phasor~ 40;
#X obj 57 81 route /greenpush2 /graypush2 /redpush2;
#X connect 0 0 1 0;
#X connect 1 0 20 0;
#X connect 2 0 5 0;
#X connect 3 0 7 0;
#X connect 4 0 6 0;
#X connect 5 0 16 0;
#X connect 5 1 13 0;
#X connect 6 0 17 0;
#X connect 6 1 12 0;
#X connect 7 0 15 0;
#X connect 7 1 11 0;
#X connect 8 0 14 1;
#X connect 9 0 14 1;
#X connect 10 0 14 1;
#X connect 11 0 9 0;
#X connect 12 0 10 0;
#X connect 13 0 8 0;
#X connect 14 0 18 0;
#X connect 15 0 9 0;
#X connect 16 0 8 0;
#X connect 17 0 10 0;
#X connect 19 0 14 0;
#X connect 20 0 2 0;
#X connect 20 1 3 0;
#X connect 20 2 4 0;
#X restore 49 73 pd column 2 saw40;
#N canvas 732 77 493 595 column 0;
#X obj 59 19 receive fromGUI;
#X obj 58 53 route list;
#X obj 76 143 tgl 15 0 empty empty empty 17 7 0 10 -262144 -1 -1 0
1;
#X obj 122 143 tgl 15 0 empty empty empty 17 7 0 10 -262144 -1 -1 0
1;
#X obj 172 142 tgl 15 0 empty empty empty 17 7 0 10 -262144 -1 -1 0
1;
#X obj 59 181 sel 1;
#X obj 169 183 sel 1;
#X obj 115 186 sel 1;
#X obj 257 295 vsl 15 128 0 127 0 0 empty empty empty 0 -9 0 10 -262144
-1 -1 0 1;
#X obj 297 296 vsl 15 128 0 127 0 0 empty empty empty 0 -9 0 10 -262144
-1 -1 0 1;
#X obj 340 294 vsl 15 128 0 127 0 0 empty empty empty 0 -9 0 10 -262144
-1 -1 0 1;
#X msg 157 259 0;
#X msg 189 237 0;
#X msg 117 241 0;
#X obj 144 375 *~ 0.1;
#X msg 312 242 0.3;
#X obj 168 474 outlet~;
#X msg 35 269 90;
#X obj 23 227 loadbang;
#X obj 72 300 * -1;
#X obj 18 334 phasor~;
#X msg 121 303 0;
#X obj 91 338 phasor~;
#X obj 17 367 *~ 2;
#X obj 92 366 *~ 2;
#X obj 20 406 -~ 1;
#X obj 79 401 -~ 1;
#X obj 83 436 clip~ 0 1;
#X obj 15 437 clip~ 0 1;
#X obj 47 502 +~;
#X msg 271 192 0.02;
#X msg 300 217 0.1;
#X obj 57 81 route /greenpush3 /graypush3 /redpush3;
#X connect 0 0 1 0;
#X connect 1 0 32 0;
#X connect 2 0 5 0;
#X connect 3 0 7 0;
#X connect 4 0 6 0;
#X connect 5 0 30 0;
#X connect 5 1 13 0;
#X connect 6 0 15 0;
#X connect 6 1 12 0;
#X connect 7 0 31 0;
#X connect 7 1 11 0;
#X connect 8 0 14 1;
#X connect 9 0 14 1;
#X connect 10 0 14 1;
#X connect 11 0 9 0;
#X connect 12 0 10 0;
#X connect 13 0 8 0;
#X connect 14 0 16 0;
#X connect 15 0 10 0;
#X connect 17 0 19 0;
#X connect 17 0 20 0;
#X connect 18 0 17 0;
#X connect 18 0 21 0;
#X connect 19 0 22 0;
#X connect 20 0 23 0;
#X connect 21 0 22 1;
#X connect 21 0 20 1;
#X connect 22 0 24 0;
#X connect 23 0 25 0;
#X connect 24 0 26 0;
#X connect 25 0 28 0;
#X connect 26 0 27 0;
#X connect 27 0 29 1;
#X connect 28 0 29 0;
#X connect 29 0 14 0;
#X connect 30 0 8 0;
#X connect 31 0 9 0;
#X connect 32 0 2 0;
#X connect 32 1 3 0;
#X connect 32 2 4 0;
#X restore 85 95 pd column 3 tri90;
#N canvas 732 77 493 595 column 0;
#X obj 59 19 receive fromGUI;
#X obj 58 53 route list;
#X obj 76 143 tgl 15 0 empty empty empty 17 7 0 10 -262144 -1 -1 0
1;
#X obj 122 143 tgl 15 0 empty empty empty 17 7 0 10 -262144 -1 -1 0
1;
#X obj 172 142 tgl 15 0 empty empty empty 17 7 0 10 -262144 -1 -1 0
1;
#X obj 59 181 sel 1;
#X obj 169 183 sel 1;
#X obj 115 186 sel 1;
#X obj 257 295 vsl 15 128 0 127 0 0 empty empty empty 0 -9 0 10 -262144
-1 -1 0 1;
#X obj 297 296 vsl 15 128 0 127 0 0 empty empty empty 0 -9 0 10 -262144
-1 -1 0 1;
#X obj 340 294 vsl 15 128 0 127 0 0 empty empty empty 0 -9 0 10 -262144
-1 -1 0 1;
#X msg 157 259 0;
#X msg 189 237 0;
#X msg 117 241 0;
#X obj 144 375 *~ 0.1;
#X msg 312 242 0.3;
#X obj 168 474 outlet~;
#X msg 271 192 0.02;
#X msg 300 217 0.1;
#X obj 57 81 route /greenpush5 /graypush5 /redpush5;
#X obj 104 333 osc~;
#X obj 31 366 metro 5;
#X obj 30 406 random 100;
#X obj 26 327 tgl 15 0 empty empty empty 17 7 0 10 -262144 -1 -1 1
1;
#X obj 21 275 loadbang;
#X connect 0 0 1 0;
#X connect 1 0 19 0;
#X connect 2 0 5 0;
#X connect 3 0 7 0;
#X connect 4 0 6 0;
#X connect 5 0 17 0;
#X connect 5 1 13 0;
#X connect 6 0 15 0;
#X connect 6 1 12 0;
#X connect 7 0 18 0;
#X connect 7 1 11 0;
#X connect 8 0 14 1;
#X connect 9 0 14 1;
#X connect 10 0 14 1;
#X connect 11 0 9 0;
#X connect 12 0 10 0;
#X connect 13 0 8 0;
#X connect 14 0 16 0;
#X connect 15 0 10 0;
#X connect 17 0 8 0;
#X connect 18 0 9 0;
#X connect 19 0 2 0;
#X connect 19 1 3 0;
#X connect 19 2 4 0;
#X connect 20 0 14 0;
#X connect 21 0 22 0;
#X connect 22 0 20 0;
#X connect 23 0 21 0;
#X connect 24 0 23 0;
#X restore 208 67 pd column 5 rand low;
#N canvas 732 77 493 595 column 0;
#X obj 59 19 receive fromGUI;
#X obj 58 53 route list;
#X obj 76 143 tgl 15 0 empty empty empty 17 7 0 10 -262144 -1 -1 0
1;
#X obj 122 143 tgl 15 0 empty empty empty 17 7 0 10 -262144 -1 -1 0
1;
#X obj 172 142 tgl 15 0 empty empty empty 17 7 0 10 -262144 -1 -1 0
1;
#X obj 59 181 sel 1;
#X obj 169 183 sel 1;
#X obj 115 186 sel 1;
#X obj 257 295 vsl 15 128 0 127 0 0 empty empty empty 0 -9 0 10 -262144
-1 -1 0 1;
#X obj 297 296 vsl 15 128 0 127 0 0 empty empty empty 0 -9 0 10 -262144
-1 -1 0 1;
#X obj 340 294 vsl 15 128 0 127 0 0 empty empty empty 0 -9 0 10 -262144
-1 -1 0 1;
#X msg 157 259 0;
#X msg 189 237 0;
#X msg 117 241 0;
#X obj 144 375 *~ 0.1;
#X msg 312 242 0.3;
#X obj 168 474 outlet~;
#X msg 271 192 0.02;
#X msg 300 217 0.1;
#X obj 104 333 osc~;
#X obj 31 366 metro 5;
#X obj 26 327 tgl 15 0 empty empty empty 17 7 0 10 -262144 -1 -1 1
1;
#X obj 21 275 loadbang;
#X obj 57 81 route /greenpush6 /graypush6 /redpush6;
#X obj 88 294 + 10000;
#X obj 30 406 random 8000;
#X connect 0 0 1 0;
#X connect 1 0 23 0;
#X connect 2 0 5 0;
#X connect 3 0 7 0;
#X connect 4 0 6 0;
#X connect 5 0 17 0;
#X connect 5 1 13 0;
#X connect 6 0 15 0;
#X connect 6 1 12 0;
#X connect 7 0 18 0;
#X connect 7 1 11 0;
#X connect 8 0 14 1;
#X connect 9 0 14 1;
#X connect 10 0 14 1;
#X connect 11 0 9 0;
#X connect 12 0 10 0;
#X connect 13 0 8 0;
#X connect 14 0 16 0;
#X connect 15 0 10 0;
#X connect 17 0 8 0;
#X connect 18 0 9 0;
#X connect 19 0 14 0;
#X connect 20 0 25 0;
#X connect 21 0 20 0;
#X connect 22 0 21 0;
#X connect 23 0 2 0;
#X connect 23 1 3 0;
#X connect 23 2 4 0;
#X connect 24 0 19 0;
#X connect 25 0 24 0;
#X restore 224 90 pd column 6 rand high;
#N canvas 631 43 493 595 column 0;
#X obj 59 19 receive fromGUI;
#X obj 58 53 route list;
#X obj 76 143 tgl 15 0 empty empty empty 17 7 0 10 -262144 -1 -1 0
1;
#X obj 122 143 tgl 15 0 empty empty empty 17 7 0 10 -262144 -1 -1 0
1;
#X obj 172 142 tgl 15 0 empty empty empty 17 7 0 10 -262144 -1 -1 0
1;
#X obj 59 181 sel 1;
#X obj 169 183 sel 1;
#X obj 115 186 sel 1;
#X obj 257 295 vsl 15 128 0 127 0 0 empty empty empty 0 -9 0 10 -262144
-1 -1 0 1;
#X obj 297 296 vsl 15 128 0 127 0 0 empty empty empty 0 -9 0 10 -262144
-1 -1 0 1;
#X obj 340 294 vsl 15 128 0 127 0 0 empty empty empty 0 -9 0 10 -262144
-1 -1 0 1;
#X msg 157 259 0;
#X msg 189 237 0;
#X msg 117 241 0;
#X obj 144 375 *~ 0.1;
#X msg 312 242 0.3;
#X obj 168 474 outlet~;
#X msg 271 192 0.02;
#X msg 300 217 0.1;
#X obj 104 333 osc~;
#X obj 26 327 tgl 15 0 empty empty empty 17 7 0 10 -262144 -1 -1 1
1;
#X obj 21 275 loadbang;
#X obj 57 81 route /greenpush7 /graypush7 /redpush7;
#X obj 30 406 random 20000;
#X obj 31 366 metro 10;
#X connect 0 0 1 0;
#X connect 1 0 22 0;
#X connect 2 0 5 0;
#X connect 3 0 7 0;
#X connect 4 0 6 0;
#X connect 5 0 17 0;
#X connect 5 1 13 0;
#X connect 6 0 15 0;
#X connect 6 1 12 0;
#X connect 7 0 18 0;
#X connect 7 1 11 0;
#X connect 8 0 14 1;
#X connect 9 0 14 1;
#X connect 10 0 14 1;
#X connect 11 0 9 0;
#X connect 12 0 10 0;
#X connect 13 0 8 0;
#X connect 14 0 16 0;
#X connect 15 0 10 0;
#X connect 17 0 8 0;
#X connect 18 0 9 0;
#X connect 19 0 14 0;
#X connect 20 0 24 0;
#X connect 21 0 20 0;
#X connect 22 0 2 0;
#X connect 22 1 3 0;
#X connect 22 2 4 0;
#X connect 23 0 19 0;
#X connect 24 0 23 0;
#X restore 372 45 pd column 7 rand all;
#N canvas 589 23 649 692 column 0;
#X obj 59 19 receive fromGUI;
#X obj 58 53 route list;
#X obj 76 143 tgl 15 0 empty empty empty 17 7 0 10 -262144 -1 -1 0
1;
#X obj 122 143 tgl 15 0 empty empty empty 17 7 0 10 -262144 -1 -1 0
1;
#X obj 172 142 tgl 15 0 empty empty empty 17 7 0 10 -262144 -1 -1 0
1;
#X obj 59 181 sel 1;
#X obj 169 183 sel 1;
#X obj 115 186 sel 1;
#X obj 492 347 vsl 15 128 0 127 0 0 empty empty empty 0 -9 0 10 -262144
-1 -1 0 1;
#X obj 532 348 vsl 15 128 0 127 0 0 empty empty empty 0 -9 0 10 -262144
-1 -1 0 1;
#X obj 575 346 vsl 15 128 0 127 0 0 empty empty empty 0 -9 0 10 -262144
-1 -1 0 1;
#X msg 157 259 0;
#X msg 189 237 0;
#X msg 117 241 0;
#X obj 379 427 *~ 0.1;
#X msg 312 242 0.3;
#X obj 343 523 outlet~;
#X msg 271 192 0.02;
#X obj 57 81 route /greenpush8 /graypush8 /redpush8;
#X floatatom 101 341 5 0 0 0 - - -, f 5;
#X obj 128 377 osc~;
#X obj 124 435 *~;
#X obj 10 416 *~;
#X obj 67 298 * 0.3175;
#X obj 200 306 * 0.007874;
#X floatatom 194 344 5 0 0 0 - - -, f 5;
#X obj 230 387 loadbang;
#X msg 237 430 100;
#X obj 173 402 line~;
#X obj 36 459 *~ 0.1, f 7;
#X floatatom 69 258 5 0 0 0 - - -, f 5;
#X floatatom 141 294 5 0 0 0 - - -, f 5;
#X obj 304 380 hsl 128 15 0 127 0 0 empty empty empty -2 -8 0 10 -262144
-1 -1 12700 1;
#X msg 300 217 0.1;
#X msg 309 342 127;
#X obj 299 317 loadbang;
#X obj 19 346 phasor~ 16;
#X obj 16 203 loadbang;
#X msg 16 225 24;
#X msg 49 226 10;
#X connect 0 0 1 0;
#X connect 1 0 18 0;
#X connect 2 0 5 0;
#X connect 3 0 7 0;
#X connect 4 0 6 0;
#X connect 5 0 17 0;
#X connect 5 1 13 0;
#X connect 6 0 15 0;
#X connect 6 1 12 0;
#X connect 7 0 33 0;
#X connect 7 1 11 0;
#X connect 8 0 14 1;
#X connect 9 0 14 1;
#X connect 10 0 14 1;
#X connect 11 0 9 0;
#X connect 12 0 10 0;
#X connect 13 0 8 0;
#X connect 14 0 16 0;
#X connect 15 0 10 0;
#X connect 17 0 8 0;
#X connect 18 0 2 0;
#X connect 18 1 3 0;
#X connect 18 2 4 0;
#X connect 19 0 20 0;
#X connect 20 0 21 0;
#X connect 21 0 22 1;
#X connect 22 0 29 0;
#X connect 23 0 19 0;
#X connect 24 0 25 0;
#X connect 25 0 28 0;
#X connect 26 0 27 0;
#X connect 27 0 28 1;
#X connect 28 0 21 1;
#X connect 29 0 14 0;
#X connect 30 0 23 0;
#X connect 31 0 24 0;
#X connect 32 0 29 1;
#X connect 33 0 9 0;
#X connect 34 0 32 0;
#X connect 35 0 34 0;
#X connect 36 0 22 0;
#X connect 37 0 38 0;
#X connect 37 0 39 0;
#X connect 38 0 30 0;
#X connect 39 0 31 0;
#X restore 381 67 pd column 8 ring mod square low;
#N canvas 589 23 649 692 column 0;
#X obj 59 19 receive fromGUI;
#X obj 58 53 route list;
#X obj 76 143 tgl 15 0 empty empty empty 17 7 0 10 -262144 -1 -1 0
1;
#X obj 122 143 tgl 15 0 empty empty empty 17 7 0 10 -262144 -1 -1 0
1;
#X obj 172 142 tgl 15 0 empty empty empty 17 7 0 10 -262144 -1 -1 0
1;
#X obj 59 181 sel 1;
#X obj 169 183 sel 1;
#X obj 115 186 sel 1;
#X obj 492 347 vsl 15 128 0 127 0 0 empty empty empty 0 -9 0 10 -262144
-1 -1 0 1;
#X obj 532 348 vsl 15 128 0 127 0 0 empty empty empty 0 -9 0 10 -262144
-1 -1 0 1;
#X obj 575 346 vsl 15 128 0 127 0 0 empty empty empty 0 -9 0 10 -262144
-1 -1 0 1;
#X msg 157 259 0;
#X msg 189 237 0;
#X msg 117 241 0;
#X obj 379 427 *~ 0.1;
#X msg 312 242 0.3;
#X obj 343 523 outlet~;
#X msg 271 192 0.02;
#X floatatom 101 341 5 0 0 0 - - -, f 5;
#X obj 128 377 osc~;
#X obj 124 435 *~;
#X obj 10 416 *~;
#X obj 67 298 * 0.3175;
#X obj 200 306 * 0.007874;
#X floatatom 194 344 5 0 0 0 - - -, f 5;
#X obj 230 387 loadbang;
#X msg 237 430 100;
#X obj 173 402 line~;
#X obj 36 459 *~ 0.1, f 7;
#X floatatom 69 258 5 0 0 0 - - -, f 5;
#X floatatom 141 294 5 0 0 0 - - -, f 5;
#X obj 304 380 hsl 128 15 0 127 0 0 empty empty empty -2 -8 0 10 -262144
-1 -1 12700 1;
#X msg 300 217 0.1;
#X msg 309 342 127;
#X obj 299 317 loadbang;
#X obj 57 81 route /greenpush9 /graypush9 /redpush9;
#X obj 19 346 phasor~ 785;
#X obj 13 203 loadbang;
#X msg 40 230 157;
#X msg 77 229 2;
#X connect 0 0 1 0;
#X connect 1 0 35 0;
#X connect 2 0 5 0;
#X connect 3 0 7 0;
#X connect 4 0 6 0;
#X connect 5 0 17 0;
#X connect 5 1 13 0;
#X connect 6 0 15 0;
#X connect 6 1 12 0;
#X connect 7 0 32 0;
#X connect 7 1 11 0;
#X connect 8 0 14 1;
#X connect 9 0 14 1;
#X connect 10 0 14 1;
#X connect 11 0 9 0;
#X connect 12 0 10 0;
#X connect 13 0 8 0;
#X connect 14 0 16 0;
#X connect 15 0 10 0;
#X connect 17 0 8 0;
#X connect 18 0 19 0;
#X connect 19 0 20 0;
#X connect 20 0 21 1;
#X connect 21 0 28 0;
#X connect 22 0 18 0;
#X connect 23 0 24 0;
#X connect 24 0 27 0;
#X connect 25 0 26 0;
#X connect 26 0 27 1;
#X connect 27 0 20 1;
#X connect 28 0 14 0;
#X connect 29 0 22 0;
#X connect 30 0 23 0;
#X connect 31 0 28 1;
#X connect 32 0 9 0;
#X connect 33 0 31 0;
#X connect 34 0 33 0;
#X connect 35 0 2 0;
#X connect 35 1 3 0;
#X connect 35 2 4 0;
#X connect 36 0 21 0;
#X connect 37 0 38 0;
#X connect 37 0 39 0;
#X connect 38 0 29 0;
#X connect 39 0 30 0;
#X restore 390 89 pd column 9 ring mod square high;
#N canvas 589 23 649 692 column 0;
#X obj 59 19 receive fromGUI;
#X obj 58 53 route list;
#X obj 76 143 tgl 15 0 empty empty empty 17 7 0 10 -262144 -1 -1 0
1;
#X obj 122 143 tgl 15 0 empty empty empty 17 7 0 10 -262144 -1 -1 0
1;
#X obj 172 142 tgl 15 0 empty empty empty 17 7 0 10 -262144 -1 -1 0
1;
#X obj 59 181 sel 1;
#X obj 169 183 sel 1;
#X obj 115 186 sel 1;
#X obj 492 347 vsl 15 128 0 127 0 0 empty empty empty 0 -9 0 10 -262144
-1 -1 0 1;
#X obj 532 348 vsl 15 128 0 127 0 0 empty empty empty 0 -9 0 10 -262144
-1 -1 0 1;
#X obj 575 346 vsl 15 128 0 127 0 0 empty empty empty 0 -9 0 10 -262144
-1 -1 0 1;
#X msg 157 259 0;
#X msg 189 237 0;
#X msg 117 241 0;
#X obj 379 427 *~ 0.1;
#X msg 312 242 0.3;
#X obj 343 523 outlet~;
#X msg 271 192 0.02;
#X floatatom 101 341 5 0 0 0 - - -, f 5;
#X obj 128 377 osc~;
#X obj 124 435 *~;
#X obj 10 416 *~;
#X obj 67 298 * 0.3175;
#X obj 200 306 * 0.007874;
#X floatatom 194 344 5 0 0 0 - - -, f 5;
#X obj 230 387 loadbang;
#X msg 237 430 100;
#X obj 173 402 line~;
#X obj 36 459 *~ 0.1, f 7;
#X floatatom 69 258 5 0 0 0 - - -, f 5;
#X floatatom 141 294 5 0 0 0 - - -, f 5;
#X obj 304 380 hsl 128 15 0 127 0 0 empty empty empty -2 -8 0 10 -262144
-1 -1 12700 1;
#X msg 300 217 0.1;
#X msg 309 342 127;
#X obj 299 317 loadbang;
#X obj 13 203 loadbang;
#X msg 40 230 157;
#X msg 77 229 2;
#X obj 57 81 route /greenpush10 /graypush10 /redpush10;
#X floatatom 20 277 5 0 0 0 - - -, f 5;
#X obj 20 346 osc~ 11;
#X connect 0 0 1 0;
#X connect 1 0 38 0;
#X connect 2 0 5 0;
#X connect 3 0 7 0;
#X connect 4 0 6 0;
#X connect 5 0 17 0;
#X connect 5 1 13 0;
#X connect 6 0 15 0;
#X connect 6 1 12 0;
#X connect 7 0 32 0;
#X connect 7 1 11 0;
#X connect 8 0 14 1;
#X connect 9 0 14 1;
#X connect 10 0 14 1;
#X connect 11 0 9 0;
#X connect 12 0 10 0;
#X connect 13 0 8 0;
#X connect 14 0 16 0;
#X connect 15 0 10 0;
#X connect 17 0 8 0;
#X connect 18 0 19 0;
#X connect 19 0 20 0;
#X connect 20 0 21 1;
#X connect 21 0 28 0;
#X connect 22 0 18 0;
#X connect 23 0 24 0;
#X connect 24 0 27 0;
#X connect 25 0 26 0;
#X connect 26 0 27 1;
#X connect 27 0 20 1;
#X connect 28 0 14 0;
#X connect 29 0 22 0;
#X connect 30 0 23 0;
#X connect 31 0 28 1;
#X connect 32 0 9 0;
#X connect 33 0 31 0;
#X connect 34 0 33 0;
#X connect 35 0 36 0;
#X connect 35 0 37 0;
#X connect 36 0 29 0;
#X connect 37 0 30 0;
#X connect 38 0 2 0;
#X connect 38 1 3 0;
#X connect 38 2 4 0;
#X connect 39 0 40 0;
#X connect 40 0 21 0;
#X restore 604 41 pd column 10 ring mod sin low;
#N canvas 589 23 649 692 column 0;
#X obj 59 19 receive fromGUI;
#X obj 58 53 route list;
#X obj 76 143 tgl 15 0 empty empty empty 17 7 0 10 -262144 -1 -1 0
1;
#X obj 122 143 tgl 15 0 empty empty empty 17 7 0 10 -262144 -1 -1 0
1;
#X obj 172 142 tgl 15 0 empty empty empty 17 7 0 10 -262144 -1 -1 0
1;
#X obj 59 181 sel 1;
#X obj 169 183 sel 1;
#X obj 115 186 sel 1;
#X obj 492 347 vsl 15 128 0 127 0 0 empty empty empty 0 -9 0 10 -262144
-1 -1 0 1;
#X obj 532 348 vsl 15 128 0 127 0 0 empty empty empty 0 -9 0 10 -262144
-1 -1 0 1;
#X obj 575 346 vsl 15 128 0 127 0 0 empty empty empty 0 -9 0 10 -262144
-1 -1 0 1;
#X msg 157 259 0;
#X msg 189 237 0;
#X msg 117 241 0;
#X obj 379 427 *~ 0.1;
#X msg 312 242 0.3;
#X obj 343 523 outlet~;
#X msg 271 192 0.02;
#X floatatom 101 341 5 0 0 0 - - -, f 5;
#X obj 128 377 osc~;
#X obj 124 435 *~;
#X obj 10 416 *~;
#X obj 67 298 * 0.3175;
#X obj 200 306 * 0.007874;
#X floatatom 194 344 5 0 0 0 - - -, f 5;
#X obj 230 387 loadbang;
#X msg 237 430 100;
#X obj 173 402 line~;
#X obj 36 459 *~ 0.1, f 7;
#X floatatom 69 258 5 0 0 0 - - -, f 5;
#X floatatom 141 294 5 0 0 0 - - -, f 5;
#X obj 304 380 hsl 128 15 0 127 0 0 empty empty empty -2 -8 0 10 -262144
-1 -1 12700 1;
#X msg 300 217 0.1;
#X msg 309 342 127;
#X obj 299 317 loadbang;
#X obj 13 203 loadbang;
#X msg 77 229 2;
#X obj 57 81 route /greenpush11 /graypush11 /redpush11;
#X obj 23 389 osc~ 10000;
#X msg 34 339 2000;
#X msg 39 236 100;
#X connect 0 0 1 0;
#X connect 1 0 37 0;
#X connect 2 0 5 0;
#X connect 3 0 7 0;
#X connect 4 0 6 0;
#X connect 5 0 17 0;
#X connect 5 1 13 0;
#X connect 6 0 15 0;
#X connect 6 1 12 0;
#X connect 7 0 32 0;
#X connect 7 1 11 0;
#X connect 8 0 14 1;
#X connect 9 0 14 1;
#X connect 10 0 14 1;
#X connect 11 0 9 0;
#X connect 12 0 10 0;
#X connect 13 0 8 0;
#X connect 14 0 16 0;
#X connect 15 0 10 0;
#X connect 17 0 8 0;
#X connect 18 0 19 0;
#X connect 19 0 20 0;
#X connect 20 0 21 1;
#X connect 21 0 28 0;
#X connect 22 0 18 0;
#X connect 23 0 24 0;
#X connect 24 0 27 0;
#X connect 25 0 26 0;
#X connect 26 0 27 1;
#X connect 27 0 20 1;
#X connect 28 0 14 0;
#X connect 29 0 22 0;
#X connect 30 0 23 0;
#X connect 31 0 28 1;
#X connect 32 0 9 0;
#X connect 33 0 31 0;
#X connect 34 0 33 0;
#X connect 35 0 40 0;
#X connect 35 0 36 0;
#X connect 36 0 30 0;
#X connect 37 0 2 0;
#X connect 37 1 3 0;
#X connect 37 2 4 0;
#X connect 38 0 21 0;
#X connect 39 0 38 0;
#X connect 40 0 29 0;
#X restore 616 63 pd column 11 ring mod sin high;
#N canvas 589 23 649 692 column 0;
#X obj 59 19 receive fromGUI;
#X obj 58 53 route list;
#X obj 76 143 tgl 15 0 empty empty empty 17 7 0 10 -262144 -1 -1 0
1;
#X obj 122 143 tgl 15 0 empty empty empty 17 7 0 10 -262144 -1 -1 0
1;
#X obj 172 142 tgl 15 0 empty empty empty 17 7 0 10 -262144 -1 -1 0
1;
#X obj 59 181 sel 1;
#X obj 169 183 sel 1;
#X obj 115 186 sel 1;
#X obj 492 347 vsl 15 128 0 127 0 0 empty empty empty 0 -9 0 10 -262144
-1 -1 0 1;
#X obj 532 348 vsl 15 128 0 127 0 0 empty empty empty 0 -9 0 10 -262144
-1 -1 0 1;
#X obj 575 346 vsl 15 128 0 127 0 0 empty empty empty 0 -9 0 10 -262144
-1 -1 0 1;
#X msg 157 259 0;
#X msg 189 237 0;
#X msg 117 241 0;
#X obj 379 427 *~ 0.1;
#X msg 312 242 0.3;
#X obj 343 523 outlet~;
#X msg 271 192 0.02;
#X floatatom 101 341 5 0 0 0 - - -, f 5;
#X obj 128 377 osc~;
#X obj 124 435 *~;
#X obj 10 416 *~;
#X obj 67 298 * 0.3175;
#X obj 200 306 * 0.007874;
#X floatatom 194 344 5 0 0 0 - - -, f 5;
#X obj 230 387 loadbang;
#X msg 237 430 100;
#X obj 173 402 line~;
#X obj 36 459 *~ 0.1, f 7;
#X floatatom 69 258 5 0 0 0 - - -, f 5;
#X floatatom 141 294 5 0 0 0 - - -, f 5;
#X obj 304 380 hsl 128 15 0 127 0 0 empty empty empty -2 -8 0 10 -262144
-1 -1 12700 1;
#X msg 300 217 0.1;
#X msg 309 342 127;
#X obj 299 317 loadbang;
#X obj 13 203 loadbang;
#X msg 77 229 2;
#X msg 39 236 100;
#X obj 10 236 tgl 15 0 empty empty empty 17 7 0 10 -262144 -1 -1 1
1;
#X floatatom 15 347 5 0 0 0 - - -, f 5;
#X obj 12 276 metro 50;
#X obj 56 81 route /greenpush12 /graypush12 /redpush12;
#X obj 2 319 random 15;
#X obj 23 389 osc~ 46;
#X connect 0 0 1 0;
#X connect 1 0 41 0;
#X connect 2 0 5 0;
#X connect 3 0 7 0;
#X connect 4 0 6 0;
#X connect 5 0 17 0;
#X connect 5 1 13 0;
#X connect 6 0 15 0;
#X connect 6 1 12 0;
#X connect 7 0 32 0;
#X connect 7 1 11 0;
#X connect 8 0 14 1;
#X connect 9 0 14 1;
#X connect 10 0 14 1;
#X connect 11 0 9 0;
#X connect 12 0 10 0;
#X connect 13 0 8 0;
#X connect 14 0 16 0;
#X connect 15 0 10 0;
#X connect 17 0 8 0;
#X connect 18 0 19 0;
#X connect 19 0 20 0;
#X connect 20 0 21 1;
#X connect 21 0 28 0;
#X connect 22 0 18 0;
#X connect 23 0 24 0;
#X connect 24 0 27 0;
#X connect 25 0 26 0;
#X connect 26 0 27 1;
#X connect 27 0 20 1;
#X connect 28 0 14 0;
#X connect 29 0 22 0;
#X connect 30 0 23 0;
#X connect 31 0 28 1;
#X connect 32 0 9 0;
#X connect 33 0 31 0;
#X connect 34 0 33 0;
#X connect 35 0 38 0;
#X connect 35 0 36 0;
#X connect 36 0 30 0;
#X connect 37 0 29 0;
#X connect 38 0 40 0;
#X connect 39 0 43 0;
#X connect 40 0 42 0;
#X connect 41 0 2 0;
#X connect 41 1 3 0;
#X connect 41 2 4 0;
#X connect 42 0 29 0;
#X connect 43 0 21 0;
#X restore 623 86 pd column 12 ring mod rand low;
#N canvas 589 23 649 692 column 0;
#X obj 59 19 receive fromGUI;
#X obj 58 53 route list;
#X obj 76 143 tgl 15 0 empty empty empty 17 7 0 10 -262144 -1 -1 0
1;
#X obj 122 143 tgl 15 0 empty empty empty 17 7 0 10 -262144 -1 -1 0
1;
#X obj 172 142 tgl 15 0 empty empty empty 17 7 0 10 -262144 -1 -1 0
1;
#X obj 59 181 sel 1;
#X obj 169 183 sel 1;
#X obj 115 186 sel 1;
#X obj 492 347 vsl 15 128 0 127 0 0 empty empty empty 0 -9 0 10 -262144
-1 -1 0 1;
#X obj 532 348 vsl 15 128 0 127 0 0 empty empty empty 0 -9 0 10 -262144
-1 -1 0 1;
#X obj 575 346 vsl 15 128 0 127 0 0 empty empty empty 0 -9 0 10 -262144
-1 -1 0 1;
#X msg 157 259 0;
#X msg 189 237 0;
#X msg 117 241 0;
#X obj 379 427 *~ 0.1;
#X msg 312 242 0.3;
#X obj 343 523 outlet~;
#X msg 271 192 0.02;
#X floatatom 101 341 5 0 0 0 - - -, f 5;
#X obj 128 377 osc~;
#X obj 124 435 *~;
#X obj 10 416 *~;
#X obj 67 298 * 0.3175;
#X obj 200 306 * 0.007874;
#X floatatom 194 344 5 0 0 0 - - -, f 5;
#X obj 230 387 loadbang;
#X msg 237 430 100;
#X obj 173 402 line~;
#X obj 36 459 *~ 0.1, f 7;
#X floatatom 69 258 5 0 0 0 - - -, f 5;
#X floatatom 141 294 5 0 0 0 - - -, f 5;
#X obj 304 380 hsl 128 15 0 127 0 0 empty empty empty -2 -8 0 10 -262144
-1 -1 12700 1;
#X msg 300 217 0.1;
#X msg 309 342 127;
#X obj 299 317 loadbang;
#X obj 13 203 loadbang;
#X msg 77 229 2;
#X msg 39 236 100;
#X obj 10 236 tgl 15 0 empty empty empty 17 7 0 10 -262144 -1 -1 1
1;
#X floatatom 15 347 5 0 0 0 - - -, f 5;
#X obj 12 276 metro 50;
#X obj 2 319 random 50;
#X obj 23 389 osc~ 257;
#X obj 56 81 route /greenpush13 /graypush13 /redpush13;
#X connect 0 0 1 0;
#X connect 1 0 43 0;
#X connect 2 0 5 0;
#X connect 3 0 7 0;
#X connect 4 0 6 0;
#X connect 5 0 17 0;
#X connect 5 1 13 0;
#X connect 6 0 15 0;
#X connect 6 1 12 0;
#X connect 7 0 32 0;
#X connect 7 1 11 0;
#X connect 8 0 14 1;
#X connect 9 0 14 1;
#X connect 10 0 14 1;
#X connect 11 0 9 0;
#X connect 12 0 10 0;
#X connect 13 0 8 0;
#X connect 14 0 16 0;
#X connect 15 0 10 0;
#X connect 17 0 8 0;
#X connect 18 0 19 0;
#X connect 19 0 20 0;
#X connect 20 0 21 1;
#X connect 21 0 28 0;
#X connect 22 0 18 0;
#X connect 23 0 24 0;
#X connect 24 0 27 0;
#X connect 25 0 26 0;
#X connect 26 0 27 1;
#X connect 27 0 20 1;
#X connect 28 0 14 0;
#X connect 29 0 22 0;
#X connect 30 0 23 0;
#X connect 31 0 28 1;
#X connect 32 0 9 0;
#X connect 33 0 31 0;
#X connect 34 0 33 0;
#X connect 35 0 38 0;
#X connect 35 0 36 0;
#X connect 36 0 30 0;
#X connect 37 0 29 0;
#X connect 38 0 40 0;
#X connect 39 0 42 0;
#X connect 40 0 41 0;
#X connect 41 0 29 0;
#X connect 42 0 21 0;
#X connect 43 0 2 0;
#X connect 43 1 3 0;
#X connect 43 2 4 0;
#X restore 816 43 pd column 13 ring mod rand mid;
#N canvas 589 23 649 692 column 0;
#X obj 59 19 receive fromGUI;
#X obj 58 53 route list;
#X obj 76 143 tgl 15 0 empty empty empty 17 7 0 10 -262144 -1 -1 0
1;
#X obj 122 143 tgl 15 0 empty empty empty 17 7 0 10 -262144 -1 -1 0
1;
#X obj 172 142 tgl 15 0 empty empty empty 17 7 0 10 -262144 -1 -1 0
1;
#X obj 59 181 sel 1;
#X obj 169 183 sel 1;
#X obj 115 186 sel 1;
#X obj 492 347 vsl 15 128 0 127 0 0 empty empty empty 0 -9 0 10 -262144
-1 -1 0 1;
#X obj 532 348 vsl 15 128 0 127 0 0 empty empty empty 0 -9 0 10 -262144
-1 -1 0 1;
#X obj 575 346 vsl 15 128 0 127 0 0 empty empty empty 0 -9 0 10 -262144
-1 -1 0 1;
#X msg 157 259 0;
#X msg 189 237 0;
#X msg 117 241 0;
#X obj 379 427 *~ 0.1;
#X msg 312 242 0.3;
#X obj 343 523 outlet~;
#X msg 271 192 0.02;
#X floatatom 101 341 5 0 0 0 - - -, f 5;
#X obj 128 377 osc~;
#X obj 124 435 *~;
#X obj 10 416 *~;
#X obj 67 298 * 0.3175;
#X obj 200 306 * 0.007874;
#X floatatom 194 344 5 0 0 0 - - -, f 5;
#X obj 230 387 loadbang;
#X msg 237 430 100;
#X obj 173 402 line~;
#X obj 36 459 *~ 0.1, f 7;
#X floatatom 69 258 5 0 0 0 - - -, f 5;
#X floatatom 141 294 5 0 0 0 - - -, f 5;
#X obj 304 380 hsl 128 15 0 127 0 0 empty empty empty -2 -8 0 10 -262144
-1 -1 12700 1;
#X msg 300 217 0.1;
#X msg 309 342 127;
#X obj 299 317 loadbang;
#X obj 13 203 loadbang;
#X msg 77 229 2;
#X msg 39 236 100;
#X obj 10 236 tgl 15 0 empty empty empty 17 7 0 10 -262144 -1 -1 1
1;
#X floatatom 15 347 5 0 0 0 - - -, f 5;
#X obj 23 389 osc~ 257;
#X obj 56 81 route /greenpush14 /graypush14 /redpush14;
#X msg 52 355 10000;
#X obj 2 319 random 1000;
#X obj 12 276 metro 15;
#X connect 0 0 1 0;
#X connect 1 0 41 0;
#X connect 2 0 5 0;
#X connect 3 0 7 0;
#X connect 4 0 6 0;
#X connect 5 0 17 0;
#X connect 5 1 13 0;
#X connect 6 0 15 0;
#X connect 6 1 12 0;
#X connect 7 0 32 0;
#X connect 7 1 11 0;
#X connect 8 0 14 1;
#X connect 9 0 14 1;
#X connect 10 0 14 1;
#X connect 11 0 9 0;
#X connect 12 0 10 0;
#X connect 13 0 8 0;
#X connect 14 0 16 0;
#X connect 15 0 10 0;
#X connect 17 0 8 0;
#X connect 18 0 19 0;
#X connect 19 0 20 0;
#X connect 20 0 21 1;
#X connect 21 0 28 0;
#X connect 22 0 18 0;
#X connect 23 0 24 0;
#X connect 24 0 27 0;
#X connect 25 0 26 0;
#X connect 26 0 27 1;
#X connect 27 0 20 1;
#X connect 28 0 14 0;
#X connect 29 0 22 0;
#X connect 30 0 23 0;
#X connect 31 0 28 1;
#X connect 32 0 9 0;
#X connect 33 0 31 0;
#X connect 34 0 33 0;
#X connect 35 0 38 0;
#X connect 35 0 36 0;
#X connect 36 0 30 0;
#X connect 37 0 29 0;
#X connect 38 0 44 0;
#X connect 39 0 40 0;
#X connect 40 0 21 0;
#X connect 41 0 2 0;
#X connect 41 1 3 0;
#X connect 41 2 4 0;
#X connect 42 0 40 0;
#X connect 43 0 29 0;
#X connect 44 0 43 0;
#X restore 832 69 pd column 14 ring mod rand high;
#N canvas 732 77 493 595 column 1;
#X obj 59 19 receive fromGUI;
#X obj 58 53 route list;
#X obj 76 143 tgl 15 0 empty empty empty 17 7 0 10 -262144 -1 -1 0
1;
#X obj 122 143 tgl 15 0 empty empty empty 17 7 0 10 -262144 -1 -1 0
1;
#X obj 172 142 tgl 15 0 empty empty empty 17 7 0 10 -262144 -1 -1 0
1;
#X obj 59 181 sel 1;
#X obj 169 183 sel 1;
#X obj 115 186 sel 1;
#X obj 257 295 vsl 15 128 0 127 0 0 empty empty empty 0 -9 0 10 -262144
-1 -1 0 1;
#X obj 297 296 vsl 15 128 0 127 0 0 empty empty empty 0 -9 0 10 -262144
-1 -1 0 1;
#X obj 340 294 vsl 15 128 0 127 0 0 empty empty empty 0 -9 0 10 -262144
-1 -1 0 1;
#X msg 157 259 0;
#X msg 189 237 0;
#X msg 117 241 0;
#X obj 144 375 *~ 0.1;
#X msg 312 242 0.3;
#X obj 168 474 outlet~;
#X msg 271 192 0.02;
#X msg 300 217 0.1;
#X obj 57 81 route /greenpush4 /graypush4 /redpush4;
#X obj 95 310 noise~;
#X connect 0 0 1 0;
#X connect 1 0 19 0;
#X connect 2 0 5 0;
#X connect 3 0 7 0;
#X connect 4 0 6 0;
#X connect 5 0 17 0;
#X connect 5 1 13 0;
#X connect 6 0 15 0;
#X connect 6 1 12 0;
#X connect 7 0 18 0;
#X connect 7 1 11 0;
#X connect 8 0 14 1;
#X connect 9 0 14 1;
#X connect 10 0 14 1;
#X connect 11 0 9 0;
#X connect 12 0 10 0;
#X connect 13 0 8 0;
#X connect 14 0 16 0;
#X connect 15 0 10 0;
#X connect 17 0 8 0;
#X connect 18 0 9 0;
#X connect 19 0 2 0;
#X connect 19 1 3 0;
#X connect 19 2 4 0;
#X connect 20 0 14 0;
#X restore 193 47 pd column 4 whitenoise;
#N canvas 732 77 493 595 column 0;
#X obj 59 19 receive fromGUI;
#X obj 58 53 route list;
#X obj 76 143 tgl 15 0 empty empty empty 17 7 0 10 -262144 -1 -1 0
1;
#X obj 122 143 tgl 15 0 empty empty empty 17 7 0 10 -262144 -1 -1 0
1;
#X obj 172 142 tgl 15 0 empty empty empty 17 7 0 10 -262144 -1 -1 0
1;
#X obj 59 181 sel 1;
#X obj 169 183 sel 1;
#X obj 115 186 sel 1;
#X obj 257 295 vsl 15 128 0 127 0 0 empty empty empty 0 -9 0 10 -262144
-1 -1 0 1;
#X obj 297 296 vsl 15 128 0 127 0 0 empty empty empty 0 -9 0 10 -262144
-1 -1 0 1;
#X obj 340 294 vsl 15 128 0 127 0 0 empty empty empty 0 -9 0 10 -262144
-1 -1 0 1;
#X msg 157 259 0;
#X msg 189 237 0;
#X msg 117 241 0;
#X obj 144 375 *~ 0.1;
#X msg 312 242 0.3;
#X obj 168 474 outlet~;
#X msg 271 192 0.02;
#X msg 300 217 0.1;
#X obj 57 81 route /greenpush15 /graypush15 /redpush15;
#X obj 48 373 hip~ 5;
#X obj 21 293 noise~;
#X obj 90 259 tgl 15 0 empty empty empty 17 7 0 10 -262144 -1 -1 0
1;
#X obj 97 312 random 22500;
#X obj 96 290 metro 1;
#X connect 0 0 1 0;
#X connect 1 0 19 0;
#X connect 2 0 5 0;
#X connect 3 0 7 0;
#X connect 4 0 6 0;
#X connect 5 0 17 0;
#X connect 5 1 13 0;
#X connect 6 0 15 0;
#X connect 6 1 12 0;
#X connect 7 0 18 0;
#X connect 7 1 11 0;
#X connect 8 0 14 1;
#X connect 9 0 14 1;
#X connect 10 0 14 1;
#X connect 11 0 9 0;
#X connect 12 0 10 0;
#X connect 13 0 8 0;
#X connect 14 0 16 0;
#X connect 15 0 10 0;
#X connect 17 0 8 0;
#X connect 18 0 9 0;
#X connect 19 0 2 0;
#X connect 19 1 3 0;
#X connect 19 2 4 0;
#X connect 20 0 14 0;
#X connect 21 0 20 0;
#X connect 22 0 24 0;
#X connect 23 0 20 1;
#X connect 24 0 23 0;
#X restore 860 93 pd column 15 whitenoise;
#X obj 438 294 dac~;
#X obj 442 215 hsl 128 15 0 1 0 0 empty empty empty -2 -8 0 10 -262144
-1 -1 12628 1;
#X obj 336 200 *~ 0.1;
#X obj 671 202 receive fromGUI;
#X obj 670 236 route list;
#X obj 669 264 route /volume;
#X connect 0 0 17 0;
#X connect 1 0 17 0;
#X connect 2 0 17 0;
#X connect 3 0 17 0;
#X connect 4 0 17 0;
#X connect 5 0 17 0;
#X connect 6 0 17 0;
#X connect 7 0 17 0;
#X connect 8 0 17 0;
#X connect 9 0 17 0;
#X connect 10 0 17 0;
#X connect 11 0 17 0;
#X connect 12 0 17 0;
#X connect 13 0 17 0;
#X connect 14 0 17 0;
#X connect 16 0 17 1;
#X connect 17 0 15 0;
#X connect 17 0 15 1;
#X connect 18 0 19 0;
#X connect 19 0 20 0;
#X connect 20 0 16 0;
